# xmcd CD database file
#
# Track frame offsets:
#	150
#	21828
#	45500
#	68008
#	82817
#	93652
#	113676
#	123973
#	139088
#	176682
#	191618
#	201047
#	218553
#	234823
#	272980
#	285018
#	293976
#
# Disc length: 4341 seconds
#
# Revision: 0
# Processed by: cddbd v1.5.1PL2 Copyright (c) Steve Scherf et al.
# Submitted via: CDex 1.51
#
DISCID=e610f311
DTITLE=ナムコ - ドラマCD「テイルズ オブ リバース」Vol.3〜憎しみの連鎖〜
DYEAR=2006
DGENRE=Game
TTITLE0=01
TTITLE1=02
TTITLE2=03
TTITLE3=04
TTITLE4=05
TTITLE5=06
TTITLE6=07
TTITLE7=08
TTITLE8=09
TTITLE9=10
TTITLE10=11
TTITLE11=12
TTITLE12=13
TTITLE13=14
TTITLE14=15
TTITLE15=16
TTITLE16=17
EXTD=YEAR: 2006
EXTT0=
EXTT1=
EXTT2=
EXTT3=
EXTT4=
EXTT5=
EXTT6=
EXTT7=
EXTT8=
EXTT9=
EXTT10=
EXTT11=
EXTT12=
EXTT13=
EXTT14=
EXTT15=
EXTT16=
PLAYORDER=
